Storyline

Twenty-five years after rising to international acclaim in Jean de Florette and Manon of the Spring, Daniel Auteuil returns to the world of Marcel Pagnol for his first work as director with this celebrated remake of the 1940s classic. Auteuil stars as the eponymous well-digger Pascale, a widower living with his six daughters in the Provence countryside at the start of World War I. His eldest, Patricia (the luminous Astrid Bergès-Frisbey), has returned home from Paris to help raise her sisters, and Pascale dreams of marrying her off to his loyal assistant Felipe (Kad Merad). But when she's impregnated by a wealthy young pilot (Nicolas Duvauchelle) who promptly abandons her for the frontlines, Pascale is left to contend with the consequences.

Drama | Romance - Daniel Auteuil, Jean-Pierre Darroussin, Nicolas Duvauchelle

-----------------------------------------------------------------------------

The Well-Diggers Daughter (2011) - OmikronTV Media Info

General
Complete name                            : D:UploadsThe Well-Diggers Daughter (2011) DvDrip [Eng Subs] OmikronTVThe Well-Diggers Daughter (2011) - OmikronTV.mp4
Format                                   : MPEG-4
Format profile                           : Base Media / Version 2
Codec ID                                 : mp42
File size                                : 521 MiB
Duration                                 : 1h 44mn
Overall bit rate mode                    : Variable
Overall bit rate                         : 695 Kbps


Video
ID                                       : 1
Format                                   : AVC
Format/Info                              : Advanced Video Codec
Format profile                           : Main@L3.0
Format settings, CABAC                   : Yes
Format settings, ReFrames                : 2 frames
Codec ID                                 : avc1
Codec ID/Info                            : Advanced Video Coding
Duration                                 : 1h 44mn
Bit rate mode                            : Variable
Bit rate                                 : 611 Kbps
Maximum bit rate                         : 3 892 Kbps
Width                                    : 640 pixels
Height                                   : 480 pixels
Display aspect ratio                     : 4:3
Original display aspect ratio            : 16:9
Frame rate mode                          : Constant
Frame rate                               : 25.000 fps
Standard                                 : PAL
Color space                              : YUV
Chroma subsampling                       : 4:2:0
Bit depth                                : 8 bits
Scan type                                : Progressive
Bits/(Pixel*Frame)                       : 0.080
Stream size                              : 458 MiB (88%)
Language                                 : English


Audio
ID                                       : 2
Format                                   : AAC
Format/Info                              : Advanced Audio Codec
Format profile                           : LC
Codec ID                                 : 40
Duration                                 : 1h 44mn
Bit rate mode                            : Variable
Bit rate                                 : 80.0 Kbps
Maximum bit rate                         : 89.5 Kbps
Channel(s)                               : 2 channels
Channel positions                        : Front: L R
Sampling rate                            : 48.0 KHz
Compression mode                         : Lossy
Stream size                              : 59.9 MiB (12%)
Language                                 : English


